<svg version="1.2" xmlns="http://www.w3.org/2000/svg" viewBox="0 0 428 428" width="428" height="428">
	<style>
		.s0 { fill: #000000 } 
	</style>
	<path id="Path 0" fill-rule="evenodd" class="s0" d="m213 15.15c9.07-0.07 22.57 0.51 30 1.3 7.43 0.78 18.23 2.37 24 3.53 5.77 1.16 15.45 3.39 21.5 4.96 6.05 1.57 16.85 4.96 24 7.53 7.15 2.57 19.3 7.75 27 11.5 7.7 3.75 19.4 10.28 26 14.51 6.6 4.23 15.38 10.21 19.5 13.29 4.13 3.08 11.77 9.28 17 13.77 5.23 4.49 12.76 11.61 24 23.46l-0.02 115.75c0 41.66-0.34 76.25-0.75 76.85-0.4 0.61-1.63 1.57-2.73 2.15-1.1 0.58-8.3 2.7-16 4.72-7.7 2.01-21.2 5.62-30 8.01-8.8 2.4-24.77 6.68-35.5 9.52-15.71 4.15-19.94 4.95-21.75 4.08-1.24-0.59-3.1-2.99-4.14-5.33-1.03-2.34-3.17-5.46-4.75-6.95-1.57-1.48-5.11-3.72-7.86-4.97-4.12-1.87-6.77-2.28-15-2.3-8.22-0.03-11.21 0.41-16.83 2.47-3.76 1.38-9.38 4.43-12.5 6.78-3.12 2.35-6.93 6.18-8.46 8.5-1.54 2.32-3.26 6.02-3.82 8.22-0.56 2.2-0.7 5.8-0.32 8 0.56 3.18 0.32 4.42-1.19 6.04-1.23 1.33-6.21 3.16-14.38 5.3-6.88 1.79-21.05 5.53-31.5 8.31-10.45 2.78-28.68 7.68-40.5 10.88-11.82 3.21-26 7.03-31.5 8.49-7.88 2.1-10.48 2.43-12.25 1.57-1.24-0.6-2.81-2.29-3.5-3.75-0.69-1.46-2.52-3.6-4.08-4.75-2.01-1.49-4.74-2.2-9.5-2.47q-6.67-0.39-12.17 1.31c-3.03 0.94-7.3 2.94-9.5 4.44-2.2 1.5-5.03 4.29-6.28 6.18-1.49 2.26-2.27 4.92-2.25 7.7 0.02 3.34-0.45 4.55-2.22 5.66-1.24 0.78-10.13 3.48-19.75 6.01-9.63 2.53-22.03 5.83-27.58 7.34-9.74 2.65-10.17 2.68-15.42-0.76v-31.5c0-26.67 0.23-31.73 1.5-33 0.82-0.82 3.14-1.84 5.16-2.25 2.08-0.43 4.66-1.93 6-3.5 1.28-1.51 2.79-4.44 3.33-6.5 0.55-2.06 0.99-5.32 0.99-7.25-0.01-1.93-0.57-5.25-1.25-7.39-0.67-2.14-2.69-5.18-4.48-6.75-1.79-1.57-4.26-2.87-5.5-2.89-1.24-0.01-3.05-0.8-4.03-1.75-1.62-1.56-1.78-43.97-1.7-89.72l16.24-18.56c8.98-10.25 27.43-31.34 40.65-46.5 13.42-15.38 25.13-28.51 26-29.21 0.88-0.69 2.49-1.26 3.59-1.26 1.1 0.01 3.8 0.94 6 2.07 2.87 1.47 4.99 1.87 7.5 1.43 1.93-0.34 5.3-1.65 7.5-2.91 2.2-1.25 5.7-4.26 7.78-6.67 2.07-2.41 4.49-6.64 5.37-9.39 0.98-3.07 1.36-6.35 0.97-8.5-0.35-1.92-1.64-4.55-2.88-5.83-1.23-1.28-2.22-3.53-2.19-5 0.04-2.03 6.82-10.43 28.39-35.17 15.59-17.87 29.29-33.52 30.45-34.77 1.71-1.85 3.71-2.43 10.61-3.12 4.68-0.46 15.93-0.89 25-0.96zm-28.65 15.11c-0.64 0.68-12.45 14.18-26.25 29.99l-25.1 28.75c2.75 6.42 3.11 9.67 2.85 15-0.27 5.78-1.03 8.88-3.29 13.5-1.62 3.3-5.33 8.36-8.25 11.25-2.92 2.89-7.9 6.44-11.06 7.9-3.16 1.46-8.22 2.87-11.25 3.15-3.03 0.27-6.96-0.02-8.75-0.65l-3.25-1.15c-43.01 49.08-56.96 65.05-58.75 67.16-1.79 2.11-3.14 4.08-3 4.38 0.14 0.3 6.1-1.01 13.25-2.92 7.15-1.9 25.15-6.69 40-10.63 14.85-3.95 35.78-9.55 46.5-12.45 10.72-2.9 23.43-6.35 28.23-7.66l8.73-2.38c1-6.2 2.22-10.02 3.37-12.5 1.15-2.47 4.36-6.79 7.13-9.59 2.77-2.8 7.29-6.24 10.04-7.64 2.75-1.4 7.47-3.28 10.5-4.17 3.06-0.9 9.05-1.62 13.5-1.62 5.74 0 9.83 0.64 14.46 2.26 4.52 1.58 8.19 3.83 12.25 7.51l5.79 5.25c32.16-8.64 50.61-13.59 61.75-16.57 11.14-2.99 29.48-7.9 40.75-10.93 11.27-3.02 29.84-8.03 41.25-11.11 11.41-3.09 20.98-5.79 21.25-6.02 0.27-0.22-1.07-2.01-3-3.98-1.93-1.97-8.23-7.52-14-12.33-5.77-4.82-13.87-11.15-18-14.08-4.12-2.93-11.55-7.78-16.5-10.78-4.95-2.99-13.84-7.87-19.75-10.82-5.91-2.96-15.14-7.13-20.5-9.27-5.36-2.13-13.8-5.24-18.75-6.91-4.95-1.66-15.52-4.38-23.5-6.03-7.98-1.66-20.13-3.69-27-4.52-6.87-0.83-18.57-1.71-26-1.96-7.43-0.25-18.22-0.05-24 0.44-5.94 0.51-11 1.43-11.65 2.13zm177.65 103.72c-16.77 4.47-38.6 10.32-48.5 12.99-9.9 2.68-29.33 7.94-43.18 11.7l-25.18 6.83c-1.7 8.53-3.19 12.99-4.41 15.43-1.23 2.44-4.48 6.43-7.23 8.87-2.75 2.44-7.14 5.51-9.75 6.82-2.61 1.31-7.34 3.06-10.5 3.89-3.16 0.82-9.13 1.5-13.25 1.51-5.19 0-9.5-0.69-14-2.25-5.09-1.76-7.75-3.49-12.25-8.01l-5.75-5.76c-41.46 10.97-63.18 16.78-75 19.99-11.83 3.21-31.63 8.56-44 11.88-12.38 3.32-24.75 6.58-27.5 7.23-2.75 0.65-5.58 1.69-6.29 2.29-0.96 0.82-1.29 45.07-1.25 56.36l0.04 15.25c5.81 3.61 8.98 6.42 10.78 8.58 1.81 2.16 4.01 6.4 4.88 9.42 0.88 3.02 1.57 8.43 1.52 12-0.04 3.58-0.79 8.52-1.67 11-0.88 2.48-2.81 6.24-4.3 8.37-1.49 2.13-4.62 4.95-6.96 6.25l-4.25 2.38c0 38.03 0.29 43 1.25 43 0.69 0 8.9-2.03 18.25-4.5 9.35-2.48 17.9-4.89 19-5.36 1.24-0.54 2.47-2.62 3.25-5.5 0.89-3.31 2.75-6.16 6.5-9.95 3.15-3.19 7.85-6.55 11.75-8.4 3.57-1.7 9.42-3.62 13-4.28 3.77-0.7 9.02-0.92 12.5-0.53 3.3 0.36 7.8 1.45 10 2.42 2.2 0.96 5.57 3.16 7.5 4.89l3.5 3.14c32.55-8.54 51.9-13.67 64-16.9 12.1-3.24 26.5-7.07 32-8.52 5.5-1.44 11.35-3.03 13-3.55 2.71-0.84 3.06-1.43 3.61-6.19 0.36-3.09 2.01-7.9 4-11.64 1.86-3.51 5.87-8.73 8.89-11.6 3.02-2.88 8.43-6.71 12-8.52 3.57-1.81 9.43-4.14 13-5.17 4.28-1.24 9.75-1.89 16-1.91 6.74-0.02 11.39 0.56 16 1.98 3.57 1.1 8.71 3.49 11.41 5.3 2.7 1.81 6.02 4.64 7.36 6.29 1.35 1.65 2.74 3.58 3.09 4.29 0.49 0.99 5.48 0.01 21.64-4.25 11.55-3.05 30.23-7.99 41.5-10.97 11.27-2.99 21.74-5.92 23.25-6.5l2.75-1.07c0.16-106.68-0.16-172.04-0.75-172.3-0.52-0.23-5.4 0.83-10.85 2.36-5.44 1.53-23.63 6.44-40.4 10.92zm-171.5 21.43c-2.2 1.28-5.31 3.84-6.9 5.7-1.6 1.87-3.56 4.97-4.36 6.89-0.8 1.93-1.26 5.08-1.02 7 0.23 1.93 1.34 4.85 2.44 6.5 1.11 1.65 4.23 4.12 6.93 5.49 4.09 2.07 6.32 2.49 13.41 2.48 6.99-0.01 9.47-0.47 14-2.56 3.03-1.41 7.25-4.1 9.38-5.98 2.13-1.89 4.72-5.12 5.75-7.18 1.03-2.06 1.88-5.44 1.9-7.5 0.01-2.25-0.88-5.15-2.25-7.25-1.37-2.09-4.29-4.48-7.28-5.93-3.14-1.52-7.24-2.54-11-2.74-3.37-0.18-8.41 0.36-11.5 1.22-3.03 0.85-7.3 2.59-9.5 3.86zm18-107.36c3.85-0.01 8.74 0.54 10.86 1.22 2.13 0.67 5.28 2.39 7 3.8 1.73 1.41 4.15 4.56 5.38 7 1.45 2.89 2.24 6.26 2.25 9.68 0 3.05-0.92 7.66-2.2 11-1.44 3.72-3.9 7.42-7 10.5-2.64 2.61-6.7 5.85-9.04 7.2-2.34 1.35-7.18 3.21-10.75 4.12-4.04 1.04-8.58 1.48-12 1.18-3.03-0.27-7.3-1.38-9.5-2.48-2.2-1.09-5.45-3.73-7.22-5.88-1.77-2.14-3.75-5.91-4.4-8.39-0.68-2.61-0.89-6.39-0.49-9 0.38-2.47 1.49-6.3 2.47-8.5 0.98-2.2 3.33-5.75 5.21-7.89 1.89-2.14 5.46-5.26 7.93-6.94 2.47-1.67 6.75-3.84 9.5-4.82 2.94-1.05 7.88-1.79 12-1.8zm-14.95 17.75c-2.73 2.03-6 5.28-7.28 7.2-1.63 2.46-2.32 4.92-2.3 8.25 0.03 4.14 0.45 5.09 3.28 7.37 2.92 2.35 3.91 2.57 9.75 2.2 3.59-0.23 8.29-1.29 10.5-2.36 2.2-1.07 5.87-3.75 8.15-5.95 2.82-2.72 4.52-5.46 5.31-8.51 0.73-2.87 0.82-5.4 0.24-7-0.49-1.37-2.13-3.4-3.64-4.5-1.77-1.29-4.58-2.07-7.9-2.2-2.84-0.11-6.51 0.25-8.16 0.8-1.65 0.55-5.23 2.66-7.95 4.7zm120.45 10.54c4.85 0.21 7.71 0.96 11.25 2.97 2.61 1.48 5.65 4.15 6.75 5.94 1.1 1.79 2.27 4.6 2.61 6.25 0.34 1.65 0.28 4.8-0.12 7-0.55 3.03-2.09 5.35-6.36 9.57-3.85 3.82-7.21 6.11-10.63 7.27-2.75 0.92-7.25 1.68-10 1.67-2.75-0.01-6.69-0.47-8.75-1.02-2.06-0.54-5.4-2.45-7.41-4.24-2.01-1.79-4.26-4.71-5-6.5-0.74-1.79-1.34-4.6-1.34-6.25 0-1.65 0.7-4.69 1.55-6.75 0.85-2.06 2.99-5.25 4.75-7.09 1.76-1.83 4.99-4.27 7.17-5.41 2.18-1.14 5.11-2.44 6.5-2.88 1.39-0.45 5.46-0.69 9.03-0.53zm-15 18.66c-0.55 1.1-1 2.9-1 4 0 1.1 0.56 2.58 1.25 3.29 0.69 0.7 2.94 1.6 5 2 2.06 0.39 5.44 0.29 7.5-0.22 2.06-0.52 5.21-2.32 7-4 1.98-1.87 3.25-4.05 3.25-5.57 0-1.48-0.92-3.12-2.25-4.01-1.29-0.86-4.37-1.48-7.25-1.45-2.93 0.03-6.56 0.86-8.75 2-2.06 1.08-4.2 2.86-4.75 3.96zm52.5 99.31c7.78 0.23 11.11 0.79 15 2.54 2.75 1.24 6.5 3.69 8.34 5.45 1.83 1.76 4.2 4.89 5.25 6.95 1.17 2.3 1.91 5.79 1.9 9-0.01 3.4-0.83 7.01-2.36 10.25-1.29 2.75-4.77 7.28-7.74 10.06-2.96 2.78-7.87 6.28-10.89 7.76-3.02 1.49-7.98 3.37-11 4.18-3.02 0.81-8.88 1.49-13 1.5-4.13 0.01-9.98-0.7-13-1.59-3.02-0.88-7.07-2.79-9-4.23-1.93-1.45-4.3-3.54-5.27-4.65-0.97-1.12-2.51-3.38-3.42-5.03-1.01-1.84-1.66-5.33-1.68-9-0.01-4.77 0.59-7.1 2.93-11.39 1.62-2.97 4.78-7.02 7.03-9 2.24-1.99 6.74-5.05 10-6.8 3.25-1.76 8.39-3.89 11.41-4.74 3.73-1.05 8.72-1.45 15.5-1.26zm-20.5 16.19c-1.65 0.83-4.85 3.19-7.12 5.25-2.27 2.06-4.74 4.99-5.5 6.5-0.76 1.51-1.36 4.21-1.34 6 0.03 2.38 0.96 4.12 3.5 6.5 2.51 2.36 5.04 3.55 9.21 4.35 3.26 0.63 8.13 0.8 11.25 0.4 3.02-0.39 8.41-1.9 11.96-3.35 3.65-1.5 8.24-4.39 10.57-6.65 2.26-2.2 4.68-5.8 5.38-8 1.04-3.28 1.03-4.52-0.07-6.89-0.74-1.59-3.36-4.04-5.84-5.45-3.4-1.93-6.2-2.63-11.5-2.85-4.1-0.17-9.17 0.32-12.25 1.2-2.89 0.82-6.6 2.17-8.25 2.99zm-197 64.85c7.86 0.22 10.36 0.71 14.5 2.82 2.75 1.41 6.24 3.97 7.75 5.69 1.51 1.73 3.24 5.05 3.85 7.39 0.6 2.34 0.8 6.05 0.44 8.25-0.35 2.2-1.69 5.8-2.96 8-1.28 2.2-3.85 5.37-5.7 7.03-1.86 1.67-5.41 4.23-7.88 5.68-2.48 1.45-7.43 3.4-11 4.32-4.61 1.19-8.83 1.53-14.5 1.17-4.4-0.28-9.69-1-11.75-1.61-2.06-0.6-5.62-2.78-7.9-4.84-2.29-2.06-4.76-5.21-5.5-7-0.74-1.79-1.34-5.39-1.34-8 0.01-2.9 0.89-6.47 2.25-9.18 1.23-2.44 4.49-6.41 7.24-8.82 2.75-2.42 7.02-5.34 9.5-6.51 2.47-1.16 6.52-2.69 9-3.39 2.64-0.75 8.43-1.17 14-1zm-18.5 16.4c-2.2 1.14-5.43 3.58-7.18 5.41-1.75 1.84-3.48 4.47-3.83 5.84-0.48 1.82 0 3.31 1.76 5.5 1.59 1.97 4.1 3.46 7.34 4.33 3.15 0.86 6.88 1.1 10.41 0.66 3.02-0.37 8.15-1.87 11.39-3.34 3.24-1.46 7.41-4.34 9.25-6.4 2.32-2.59 3.37-4.75 3.39-7 0.02-1.84-0.74-4.01-1.75-4.99-0.98-0.96-3.58-2.4-5.78-3.21-2.2-0.8-6.03-1.45-8.5-1.44-2.48 0.01-6.3 0.59-8.5 1.29-2.2 0.7-5.8 2.21-8 3.35z"/>
</svg>